<svg width="17" height="17" viewBox="0 0 17 17" fill="none" xmlns="http://www.w3.org/2000/svg">
<path d="M6.41766 13.8841L11.7252 9.5252C11.7694 9.48895 11.8083 9.4472 11.8411 9.40104L11.8875 9.33567C12.0375 9.12459 12.0375 8.846 11.8875 8.63492C11.8247 8.54649 11.7392 8.47537 11.6394 8.42854L9.16709 7.26829C9.08077 7.22778 9.01035 7.1613 8.96641 7.07881C8.90074 6.95554 8.90074 6.80917 8.96641 6.6859L9.03411 6.55882L10.363 3.75238C10.3959 3.68298 10.4129 3.60755 10.4129 3.53122V3.48757C10.4129 3.21829 10.1872 3 9.90872 3C9.78915 3 9.67348 3.04109 9.58234 3.11594L4.27478 7.4748C4.23064 7.51105 4.19167 7.5528 4.15888 7.59896L4.11245 7.66433C3.96252 7.87541 3.96252 8.154 4.11245 8.36509C4.17526 8.45351 4.26075 8.52463 4.36055 8.57146L6.83291 9.73171C6.91923 9.77222 6.98965 9.83871 7.03359 9.92119C7.09926 10.0445 7.09926 10.1908 7.03359 10.3141L6.96589 10.4412L5.63696 13.2476C5.6041 13.317 5.58709 13.3925 5.58709 13.4688V13.5124C5.58709 13.7817 5.81282 14 6.09128 14C6.21085 14 6.32652 13.9589 6.41766 13.8841Z" fill="black"/>
</svg>
