<svg width="27" height="27" viewBox="0 0 27 27" fill="none" xmlns="http://www.w3.org/2000/svg">
<path d="M15.1667 8.15022V16.9689M15.1667 8.15022L6.83333 8.15001C4.7 8.15001 4 9.99452 4 10.7438C4 11.3201 4 12.2654 4 14.2021C4 16.1042 6 16.9112 6.83333 16.9689H7.5M15.1667 8.15022L19.3333 4.69167C20.1667 4.00005 20.8333 3.99988 21 4C21.1667 4.00013 21.8333 4.00022 22.5 4.69179C22.5273 4.7201 23 5.21042 23 5.90209V18.6983C23 19.3899 22.5273 19.8803 22.5 19.9086C21.8333 20.6001 21.1667 20.6002 21 20.6003C20.8333 20.6005 20.1667 20.6003 19.3333 19.9087L15.1667 16.9689M15.1667 16.9689H12.6667M12.6667 16.9689C12.8889 17.6029 13.3333 21.2917 13.3333 21.6375C13.3333 23.5396 10 23.3667 9.33333 21.6375C8.66667 19.9083 7.83333 18.1793 7.5 16.9689M12.6667 16.9689H7.5" stroke="white" stroke-width="2"/>
</svg>
