<svg width="375" height="98" viewBox="0 0 375 98" fill="none" xmlns="http://www.w3.org/2000/svg">
<g clip-path="url(#clip0_0_5786)">
<g filter="url(#filter0_d_0_5786)">
<rect y="-42" width="375" height="140" fill="#F6F6F6"/>
</g>
<path d="M24.9482 26.6553H19.0215V22.5381H24.6411V21.21H19.0215V17.3667H24.9482V16.022H17.5273V28H24.9482V26.6553ZM30.3837 28.1577C31.6205 28.1577 32.683 27.5684 33.2475 26.5723H33.3803V28H34.7416V15.499H33.3139V20.4629H33.1894C32.683 19.4834 31.6288 18.894 30.3837 18.894C28.1093 18.894 26.6234 20.7202 26.6234 23.5259C26.6234 26.3398 28.0927 28.1577 30.3837 28.1577ZM30.7157 20.1807C32.3344 20.1807 33.3471 21.4756 33.3471 23.5259C33.3471 25.5928 32.3427 26.8711 30.7157 26.8711C29.0805 26.8711 28.101 25.6177 28.101 23.5259C28.101 21.4424 29.0888 20.1807 30.7157 20.1807ZM37.8611 17.3252C38.409 17.3252 38.8572 16.877 38.8572 16.3291C38.8572 15.7812 38.409 15.333 37.8611 15.333C37.3133 15.333 36.865 15.7812 36.865 16.3291C36.865 16.877 37.3133 17.3252 37.8611 17.3252ZM37.1473 28H38.575V19.0518H37.1473V28ZM41.4953 16.7358V19.0518H40.051V20.2471H41.4953V25.6758C41.4953 27.3857 42.2341 28.0664 44.0769 28.0664C44.3591 28.0664 44.633 28.0332 44.9152 27.9834V26.7798C44.6496 26.8047 44.5085 26.813 44.2512 26.813C43.3215 26.813 42.923 26.3647 42.923 25.3105V20.2471H44.9152V19.0518H42.923V16.7358H41.4953Z" fill="#037EE5"/>
<path d="M169.887 28.2988C172.651 28.2988 174.676 26.6636 174.959 24.2397H172.85C172.56 25.5845 171.406 26.4395 169.887 26.4395C167.845 26.4395 166.575 24.7378 166.575 22.0068C166.575 19.2842 167.845 17.5825 169.879 17.5825C171.389 17.5825 172.543 18.5205 172.842 19.9648H174.95C174.701 17.4829 172.601 15.7231 169.879 15.7231C166.484 15.7231 164.383 18.1221 164.383 22.0151C164.383 25.8916 166.492 28.2988 169.887 28.2988ZM176.808 28H178.867V22.729C178.867 21.4009 179.622 20.5127 180.975 20.5127C182.171 20.5127 182.801 21.2266 182.801 22.6294V28H184.86V22.1479C184.86 19.9897 183.681 18.7612 181.739 18.7612C180.386 18.7612 179.415 19.3755 178.983 20.3965H178.834V15.416H176.808V28ZM189.399 28.1494C190.586 28.1494 191.582 27.6348 192.088 26.7549H192.229V28H194.213V21.7993C194.213 19.8818 192.902 18.7529 190.569 18.7529C188.411 18.7529 186.909 19.7656 186.743 21.3511H188.685C188.876 20.7285 189.523 20.3882 190.47 20.3882C191.582 20.3882 192.18 20.8945 192.18 21.7993V22.5796L189.839 22.7207C187.631 22.8452 186.394 23.7998 186.394 25.4268C186.394 27.0869 187.647 28.1494 189.399 28.1494ZM190.005 26.564C189.092 26.564 188.436 26.1074 188.436 25.3271C188.436 24.5718 188.976 24.1484 190.129 24.0737L192.18 23.9326V24.6714C192.18 25.7505 191.25 26.564 190.005 26.564ZM196.951 16.7026V18.9854H195.515V20.5874H196.951V25.5928C196.951 27.3442 197.781 28.0415 199.865 28.0415C200.263 28.0415 200.645 28.0083 200.944 27.9502V26.373C200.695 26.3979 200.537 26.4146 200.246 26.4146C199.383 26.4146 199.001 26.0078 199.001 25.103V20.5874H200.944V18.9854H199.001V16.7026H196.951ZM202.279 21.5171C202.279 22.8784 203.1 23.6753 204.844 24.0737L206.454 24.4473C207.317 24.6465 207.707 24.9785 207.707 25.4932C207.707 26.1821 206.985 26.6553 205.948 26.6553C204.918 26.6553 204.279 26.2402 204.08 25.5679H202.046C202.204 27.2031 203.632 28.1826 205.898 28.1826C208.164 28.1826 209.766 27.0288 209.766 25.2939C209.766 23.9575 208.961 23.2188 207.226 22.8203L205.624 22.4634C204.711 22.2476 204.279 21.9238 204.279 21.4092C204.279 20.7368 204.985 20.2803 205.923 20.2803C206.886 20.2803 207.492 20.6953 207.641 21.3345H209.575C209.426 19.6992 208.073 18.7529 205.914 18.7529C203.773 18.7529 202.279 19.8901 202.279 21.5171Z" fill="black"/>
<path fill-rule="evenodd" clip-rule="evenodd" d="M359.014 14.7282C359.232 14.4387 359.208 14.0279 358.942 13.7654C358.649 13.4766 358.174 13.4766 357.881 13.7654L357.467 14.1734L358.528 15.2191L358.942 14.8111L359.014 14.7282ZM356.937 14.6963L357.998 15.742L348.254 25.3478C347.462 26.1293 346.445 26.4607 346.212 26.3666L346.18 26.347C346.037 26.2061 346.322 25.2431 347.059 24.4417L347.194 24.3021L356.937 14.6963ZM342.75 15.1831H352.25C352.664 15.1831 353 15.5142 353 15.9225C353 16.2969 352.718 16.6063 352.352 16.6552L352.25 16.662H342.75C342.103 16.662 341.57 17.1469 341.506 17.7684L341.5 17.8944V29.7254C341.5 30.3635 341.992 30.8883 342.622 30.9514L342.75 30.9578H354.75C355.397 30.9578 355.93 30.4728 355.994 29.8514L356 29.7254V20.2167C356 19.8083 356.336 19.4773 356.75 19.4773C357.13 19.4773 357.443 19.7555 357.493 20.1164L357.5 20.2167V29.7254C357.5 31.1673 356.358 32.3463 354.918 32.4317L354.75 32.4366H342.75C341.287 32.4366 340.092 31.311 340.005 29.8905L340 29.7254V17.8944C340 16.4524 341.142 15.2734 342.582 15.1881L342.75 15.1831Z" fill="#037EE5"/>
<g clip-path="url(#clip1_0_5786)">
<rect x="10" y="52.6479" width="355" height="35.493" rx="10" fill="#767680" fill-opacity="0.12"/>
<path fill-rule="evenodd" clip-rule="evenodd" d="M71.5766 71.6191C73.2142 69.4939 73.0492 66.4496 71.0815 64.5096C68.9336 62.392 65.4512 62.392 63.3033 64.5096C61.1554 66.6272 61.1554 70.0606 63.3033 72.1782C65.2713 74.1185 68.3595 74.281 70.5152 72.6658L74.4593 76.5542L74.5361 76.6203C74.83 76.8409 75.2514 76.8189 75.5199 76.5542C75.8128 76.2654 75.8128 75.7972 75.5199 75.5084L71.5766 71.6191ZM64.0104 65.2067C65.7678 63.4741 68.617 63.4741 70.3744 65.2067C72.1317 66.9393 72.1317 69.7484 70.3744 71.481C68.617 73.2136 65.7678 73.2136 64.0104 71.481C62.253 69.7484 62.253 66.9393 64.0104 65.2067Z" fill="#3C3C43" fill-opacity="0.6"/>
<path d="M84.3546 72.5186C84.5123 74.5854 86.2638 75.9302 88.8038 75.9302C91.5431 75.9302 93.2779 74.5273 93.2779 72.3276C93.2779 70.5679 92.2818 69.605 89.7999 68.9824L88.5465 68.6504C86.8946 68.2271 86.2389 67.6875 86.2389 66.7495C86.2389 65.5376 87.2931 64.7407 88.8868 64.7407C90.381 64.7407 91.3937 65.4712 91.6012 66.6997H93.1036C92.9791 64.7656 91.2525 63.3877 88.9366 63.3877C86.4049 63.3877 84.7032 64.7656 84.7032 66.7993C84.7032 68.501 85.6412 69.4805 87.8077 70.0283L89.3434 70.4268C90.9952 70.8418 91.7423 71.4893 91.7423 72.5103C91.7423 73.6973 90.5553 74.5688 88.9449 74.5688C87.2433 74.5688 86.048 73.772 85.8653 72.5186H84.3546ZM101.112 73.332C100.739 74.1206 99.9585 74.5439 98.8047 74.5439C97.2856 74.5439 96.2979 73.4233 96.2231 71.6553V71.5889H102.656V71.041C102.656 68.2603 101.187 66.542 98.7715 66.542C96.3145 66.542 94.7373 68.3682 94.7373 71.1821C94.7373 74.0127 96.2896 75.8057 98.7715 75.8057C100.73 75.8057 102.125 74.8594 102.54 73.332H101.112ZM98.7549 67.8037C100.174 67.8037 101.121 68.8496 101.154 70.4351H96.2231C96.3311 68.8496 97.3272 67.8037 98.7549 67.8037ZM106.988 75.8057C108.183 75.8057 109.163 75.2827 109.744 74.3281H109.876V75.6479H111.238V69.522C111.238 67.6626 110.017 66.542 107.834 66.542C105.925 66.542 104.514 67.4883 104.323 68.9243H105.767C105.967 68.2188 106.714 67.812 107.785 67.812C109.121 67.812 109.81 68.418 109.81 69.522V70.3354L107.228 70.4932C105.145 70.6177 103.966 71.5391 103.966 73.1411C103.966 74.7764 105.253 75.8057 106.988 75.8057ZM107.253 74.5522C106.216 74.5522 105.444 74.021 105.444 73.1079C105.444 72.2114 106.041 71.7383 107.403 71.647L109.81 71.4893V72.311C109.81 73.5894 108.723 74.5522 107.253 74.5522ZM113.477 75.6479H114.905V70.103C114.905 68.8413 115.893 67.9282 117.254 67.9282C117.536 67.9282 118.051 67.978 118.167 68.0112V66.5835C117.985 66.5586 117.686 66.542 117.453 66.542C116.266 66.542 115.237 67.1562 114.971 68.0278H114.839V66.6997H113.477V75.6479ZM126.707 69.439C126.458 67.8452 125.13 66.542 122.955 66.542C120.448 66.542 118.855 68.3516 118.855 71.1406C118.855 73.9878 120.457 75.8057 122.964 75.8057C125.113 75.8057 126.45 74.5938 126.707 72.9502H125.263C124.997 73.9629 124.159 74.519 122.955 74.519C121.362 74.519 120.332 73.2075 120.332 71.1406C120.332 69.1152 121.345 67.8286 122.955 67.8286C124.242 67.8286 125.03 68.5508 125.263 69.439H126.707ZM128.499 75.6479H129.926V70.3521C129.926 68.8413 130.806 67.8286 132.408 67.8286C133.761 67.8286 134.475 68.6172 134.475 70.2026V75.6479H135.903V69.854C135.903 67.7539 134.708 66.542 132.815 66.542C131.445 66.542 130.507 67.123 130.059 68.1108H129.926V63.147H128.499V75.6479ZM143.105 75.6479H144.533V67.895H146.583V66.6997H144.533V65.7451C144.533 64.7656 144.964 64.2676 145.994 64.2676C146.251 64.2676 146.492 64.2759 146.666 64.3091V63.147C146.367 63.0889 146.052 63.064 145.703 63.064C144.001 63.064 143.105 63.9189 143.105 65.7036V66.6997H141.619V67.895H143.105V75.6479ZM151.562 75.8057C154.11 75.8057 155.687 74.0459 155.687 71.1738C155.687 68.2935 154.11 66.542 151.562 66.542C149.013 66.542 147.436 68.2935 147.436 71.1738C147.436 74.0459 149.013 75.8057 151.562 75.8057ZM151.562 74.519C149.868 74.519 148.914 73.2905 148.914 71.1738C148.914 69.0488 149.868 67.8286 151.562 67.8286C153.255 67.8286 154.21 69.0488 154.21 71.1738C154.21 73.2905 153.255 74.519 151.562 74.519ZM157.529 75.6479H158.956V70.103C158.956 68.8413 159.944 67.9282 161.305 67.9282C161.588 67.9282 162.102 67.978 162.218 68.0112V66.5835C162.036 66.5586 161.737 66.542 161.505 66.542C160.318 66.542 159.288 67.1562 159.023 68.0278H158.89V66.6997H157.529V75.6479ZM168.001 75.6479H169.429V70.103C169.429 68.8413 170.333 67.8286 171.504 67.8286C172.633 67.8286 173.372 68.5093 173.372 69.5718V75.6479H174.799V69.8955C174.799 68.7583 175.629 67.8286 176.875 67.8286C178.136 67.8286 178.759 68.4761 178.759 69.7959V75.6479H180.187V69.4639C180.187 67.5879 179.166 66.542 177.339 66.542C176.103 66.542 175.082 67.1646 174.6 68.1108H174.467C174.052 67.1812 173.206 66.542 171.994 66.542C170.798 66.542 169.902 67.1147 169.495 68.1108H169.362V66.6997H168.001V75.6479ZM188.32 73.332C187.946 74.1206 187.166 74.5439 186.012 74.5439C184.493 74.5439 183.505 73.4233 183.431 71.6553V71.5889H189.864V71.041C189.864 68.2603 188.394 66.542 185.979 66.542C183.522 66.542 181.945 68.3682 181.945 71.1821C181.945 74.0127 183.497 75.8057 185.979 75.8057C187.938 75.8057 189.332 74.8594 189.747 73.332H188.32ZM185.962 67.8037C187.382 67.8037 188.328 68.8496 188.361 70.4351H183.431C183.538 68.8496 184.535 67.8037 185.962 67.8037ZM191.497 69.1484C191.497 70.4434 192.261 71.1655 193.938 71.5723L195.473 71.9458C196.428 72.1782 196.893 72.5933 196.893 73.2075C196.893 74.0293 196.03 74.6021 194.826 74.6021C193.68 74.6021 192.967 74.1206 192.726 73.3652H191.257C191.414 74.8511 192.784 75.8057 194.776 75.8057C196.81 75.8057 198.362 74.7017 198.362 73.0996C198.362 71.813 197.549 71.0825 195.864 70.6758L194.486 70.3438C193.431 70.0864 192.933 69.7046 192.933 69.0903C192.933 68.2935 193.763 67.7539 194.826 67.7539C195.905 67.7539 196.602 68.2271 196.793 68.9409H198.204C198.013 67.4717 196.71 66.542 194.834 66.542C192.933 66.542 191.497 67.6626 191.497 69.1484ZM199.83 69.1484C199.83 70.4434 200.593 71.1655 202.27 71.5723L203.806 71.9458C204.76 72.1782 205.225 72.5933 205.225 73.2075C205.225 74.0293 204.362 74.6021 203.158 74.6021C202.013 74.6021 201.299 74.1206 201.058 73.3652H199.589C199.747 74.8511 201.116 75.8057 203.109 75.8057C205.142 75.8057 206.695 74.7017 206.695 73.0996C206.695 71.813 205.881 71.0825 204.196 70.6758L202.818 70.3438C201.764 70.0864 201.266 69.7046 201.266 69.0903C201.266 68.2935 202.096 67.7539 203.158 67.7539C204.238 67.7539 204.935 68.2271 205.126 68.9409H206.537C206.346 67.4717 205.043 66.542 203.167 66.542C201.266 66.542 199.83 67.6626 199.83 69.1484ZM211.026 75.8057C212.221 75.8057 213.201 75.2827 213.782 74.3281H213.915V75.6479H215.276V69.522C215.276 67.6626 214.056 66.542 211.873 66.542C209.963 66.542 208.552 67.4883 208.361 68.9243H209.806C210.005 68.2188 210.752 67.812 211.823 67.812C213.159 67.812 213.848 68.418 213.848 69.522V70.3354L211.267 70.4932C209.183 70.6177 208.004 71.5391 208.004 73.1411C208.004 74.7764 209.291 75.8057 211.026 75.8057ZM211.292 74.5522C210.254 74.5522 209.482 74.021 209.482 73.1079C209.482 72.2114 210.08 71.7383 211.441 71.647L213.848 71.4893V72.311C213.848 73.5894 212.761 74.5522 211.292 74.5522ZM221.201 79.0845C223.642 79.0845 225.186 77.8062 225.186 75.8057V66.6997H223.824V68.1191H223.691C223.177 67.1562 222.073 66.542 220.819 66.542C218.52 66.542 217.067 68.3599 217.067 71.041C217.067 73.7222 218.503 75.5151 220.819 75.5151C222.048 75.5151 223.061 74.959 223.625 73.9712H223.758V75.731C223.758 77.0508 222.803 77.8394 221.201 77.8394C219.915 77.8394 219.118 77.3662 218.96 76.6357H217.449C217.665 78.1133 219.043 79.0845 221.201 79.0845ZM221.135 74.2534C219.475 74.2534 218.545 72.9917 218.545 71.041C218.545 69.0903 219.475 67.8286 221.135 67.8286C222.787 67.8286 223.791 69.0903 223.791 71.041C223.791 72.9917 222.795 74.2534 221.135 74.2534ZM233.402 73.332C233.028 74.1206 232.248 74.5439 231.094 74.5439C229.575 74.5439 228.587 73.4233 228.513 71.6553V71.5889H234.946V71.041C234.946 68.2603 233.476 66.542 231.061 66.542C228.604 66.542 227.027 68.3682 227.027 71.1821C227.027 74.0127 228.579 75.8057 231.061 75.8057C233.02 75.8057 234.414 74.8594 234.829 73.332H233.402ZM231.044 67.8037C232.464 67.8037 233.41 68.8496 233.443 70.4351H228.513C228.621 68.8496 229.617 67.8037 231.044 67.8037ZM236.579 69.1484C236.579 70.4434 237.343 71.1655 239.02 71.5723L240.555 71.9458C241.51 72.1782 241.975 72.5933 241.975 73.2075C241.975 74.0293 241.112 74.6021 239.908 74.6021C238.763 74.6021 238.049 74.1206 237.808 73.3652H236.339C236.496 74.8511 237.866 75.8057 239.858 75.8057C241.892 75.8057 243.444 74.7017 243.444 73.0996C243.444 71.813 242.631 71.0825 240.946 70.6758L239.568 70.3438C238.513 70.0864 238.015 69.7046 238.015 69.0903C238.015 68.2935 238.846 67.7539 239.908 67.7539C240.987 67.7539 241.684 68.2271 241.875 68.9409H243.286C243.096 67.4717 241.792 66.542 239.916 66.542C238.015 66.542 236.579 67.6626 236.579 69.1484ZM253.36 75.8057C255.909 75.8057 257.486 74.0459 257.486 71.1738C257.486 68.2935 255.909 66.542 253.36 66.542C250.812 66.542 249.235 68.2935 249.235 71.1738C249.235 74.0459 250.812 75.8057 253.36 75.8057ZM253.36 74.519C251.667 74.519 250.712 73.2905 250.712 71.1738C250.712 69.0488 251.667 67.8286 253.36 67.8286C255.054 67.8286 256.008 69.0488 256.008 71.1738C256.008 73.2905 255.054 74.519 253.36 74.519ZM259.327 75.6479H260.755V70.103C260.755 68.8413 261.743 67.9282 263.104 67.9282C263.386 67.9282 263.901 67.978 264.017 68.0112V66.5835C263.834 66.5586 263.536 66.542 263.303 66.542C262.116 66.542 261.087 67.1562 260.821 68.0278H260.688V66.6997H259.327V75.6479ZM277.038 66.6997H275.61V71.9956C275.61 73.5645 274.747 74.5024 273.17 74.5024C271.742 74.5024 271.144 73.7554 271.144 72.145V66.6997H269.717V72.4937C269.717 74.6104 270.763 75.8057 272.771 75.8057C274.141 75.8057 275.096 75.2412 275.544 74.2451H275.677V75.6479H277.038V66.6997ZM279.12 69.1484C279.12 70.4434 279.883 71.1655 281.56 71.5723L283.096 71.9458C284.05 72.1782 284.515 72.5933 284.515 73.2075C284.515 74.0293 283.652 74.6021 282.448 74.6021C281.303 74.6021 280.589 74.1206 280.348 73.3652H278.879C279.037 74.8511 280.406 75.8057 282.399 75.8057C284.432 75.8057 285.985 74.7017 285.985 73.0996C285.985 71.813 285.171 71.0825 283.486 70.6758L282.108 70.3438C281.054 70.0864 280.556 69.7046 280.556 69.0903C280.556 68.2935 281.386 67.7539 282.448 67.7539C283.528 67.7539 284.225 68.2271 284.416 68.9409H285.827C285.636 67.4717 284.333 66.542 282.457 66.542C280.556 66.542 279.12 67.6626 279.12 69.1484ZM293.753 73.332C293.379 74.1206 292.599 74.5439 291.445 74.5439C289.926 74.5439 288.938 73.4233 288.863 71.6553V71.5889H295.296V71.041C295.296 68.2603 293.827 66.542 291.412 66.542C288.955 66.542 287.378 68.3682 287.378 71.1821C287.378 74.0127 288.93 75.8057 291.412 75.8057C293.371 75.8057 294.765 74.8594 295.18 73.332H293.753ZM291.395 67.8037C292.815 67.8037 293.761 68.8496 293.794 70.4351H288.863C288.971 68.8496 289.967 67.8037 291.395 67.8037ZM297.138 75.6479H298.565V70.103C298.565 68.8413 299.553 67.9282 300.915 67.9282C301.197 67.9282 301.711 67.978 301.828 68.0112V66.5835C301.645 66.5586 301.346 66.542 301.114 66.542C299.927 66.542 298.897 67.1562 298.632 68.0278H298.499V66.6997H297.138V75.6479ZM302.839 69.1484C302.839 70.4434 303.602 71.1655 305.279 71.5723L306.815 71.9458C307.769 72.1782 308.234 72.5933 308.234 73.2075C308.234 74.0293 307.371 74.6021 306.167 74.6021C305.022 74.6021 304.308 74.1206 304.067 73.3652H302.598C302.756 74.8511 304.125 75.8057 306.118 75.8057C308.151 75.8057 309.704 74.7017 309.704 73.0996C309.704 71.813 308.89 71.0825 307.205 70.6758L305.827 70.3438C304.773 70.0864 304.275 69.7046 304.275 69.0903C304.275 68.2935 305.105 67.7539 306.167 67.7539C307.246 67.7539 307.944 68.2271 308.135 68.9409H309.546C309.355 67.4717 308.052 66.542 306.176 66.542C304.275 66.542 302.839 67.6626 302.839 69.1484Z" fill="#3C3C43" fill-opacity="0.6"/>
</g>
</g>
<defs>
<filter id="filter0_d_0_5786" x="0" y="-42" width="375" height="140.33" filterUnits="userSpaceOnUse" color-interpolation-filters="sRGB">
<feFlood flood-opacity="0" result="BackgroundImageFix"/>
<feColorMatrix in="SourceAlpha" type="matrix" values="0 0 0 0 0 0 0 0 0 0 0 0 0 0 0 0 0 0 127 0" result="hardAlpha"/>
<feOffset dy="0.33"/>
<feColorMatrix type="matrix" values="0 0 0 0 0.65098 0 0 0 0 0.65098 0 0 0 0 0.666667 0 0 0 1 0"/>
<feBlend mode="normal" in2="BackgroundImageFix" result="effect1_dropShadow_0_5786"/>
<feBlend mode="normal" in="SourceGraphic" in2="effect1_dropShadow_0_5786" result="shape"/>
</filter>
<clipPath id="clip0_0_5786">
<rect width="375" height="98" fill="white"/>
</clipPath>
<clipPath id="clip1_0_5786">
<rect width="355" height="35.493" fill="white" transform="translate(10 52.6479)"/>
</clipPath>
</defs>
</svg>
