<svg width="375" height="42" viewBox="0 0 375 42" fill="none" xmlns="http://www.w3.org/2000/svg">
<g clip-path="url(#clip0_44_746)">
<path fill-rule="evenodd" clip-rule="evenodd" d="M316.664 18.1738C318.88 18.1739 321.011 18.9866 322.617 20.444C322.738 20.5566 322.931 20.5551 323.05 20.4409L324.206 19.3272C324.266 19.2693 324.3 19.1907 324.299 19.1091C324.299 19.0274 324.264 18.9492 324.203 18.8919C319.988 15.036 313.338 15.036 309.123 18.8919C309.062 18.9492 309.028 19.0273 309.027 19.109C309.027 19.1907 309.06 19.2692 309.12 19.3272L310.277 20.4409C310.396 20.5553 310.589 20.5567 310.71 20.444C312.316 18.9865 314.448 18.1738 316.664 18.1738V18.1738ZM316.664 21.7969C317.881 21.7969 319.055 22.2288 319.958 23.0089C320.08 23.1196 320.272 23.1172 320.391 23.0035L321.546 21.8899C321.607 21.8314 321.64 21.7522 321.639 21.6699C321.638 21.5875 321.603 21.5089 321.541 21.4517C318.793 19.0115 314.537 19.0115 311.789 21.4517C311.727 21.5089 311.691 21.5876 311.69 21.6699C311.69 21.7523 311.723 21.8315 311.784 21.8899L312.939 23.0035C313.058 23.1172 313.25 23.1196 313.372 23.0089C314.274 22.2294 315.447 21.7974 316.664 21.7969V21.7969ZM318.883 24.4547C318.944 24.3969 318.978 24.3173 318.977 24.2347C318.975 24.1521 318.938 24.0739 318.873 24.0185C317.598 22.9887 315.73 22.9887 314.454 24.0185C314.39 24.0738 314.352 24.152 314.351 24.2346C314.349 24.3172 314.383 24.3968 314.444 24.4547L316.442 26.3788C316.501 26.4353 316.58 26.4671 316.664 26.4671C316.747 26.4671 316.827 26.4353 316.885 26.3788L318.883 24.4547Z" fill="white"/>
<path fill-rule="evenodd" clip-rule="evenodd" d="M288 22.6842H289C289.552 22.6842 290 23.1116 290 23.6387V25.5478C290 26.075 289.552 26.5024 289 26.5024H288C287.448 26.5024 287 26.075 287 25.5478V23.6387C287 23.1116 287.448 22.6842 288 22.6842V22.6842ZM292.667 20.7751H293.667C294.219 20.7751 294.667 21.2025 294.667 21.7296V25.5478C294.667 26.075 294.219 26.5024 293.667 26.5024H292.667C292.114 26.5024 291.667 26.075 291.667 25.5478V21.7296C291.667 21.2025 292.114 20.7751 292.667 20.7751ZM297.333 18.5478H298.333C298.886 18.5478 299.333 18.9752 299.333 19.5024V25.5478C299.333 26.075 298.886 26.5024 298.333 26.5024H297.333C296.781 26.5024 296.333 26.075 296.333 25.5478V19.5024C296.333 18.9752 296.781 18.5478 297.333 18.5478ZM302 16.3206H303C303.552 16.3206 304 16.7479 304 17.2751V25.5478C304 26.075 303.552 26.5024 303 26.5024H302C301.448 26.5024 301 26.075 301 25.5478V17.2751C301 16.7479 301.448 16.3206 302 16.3206V16.3206Z" fill="white"/>
<g clip-path="url(#clip1_44_746)">
<path d="M34.1341 26.2563C36.8221 26.2563 38.4187 24.1543 38.4187 20.5874C38.4187 17.0864 36.7195 15.1675 34.1927 15.1675C31.8929 15.1675 30.2669 16.7129 30.2669 18.8735C30.2669 20.9023 31.7317 22.3818 33.7459 22.3818C34.9837 22.3818 35.9871 21.8105 36.4852 20.8071H36.6097C36.5877 23.29 35.7015 24.7109 34.1561 24.7109C33.2479 24.7109 32.5228 24.2129 32.2957 23.4072H30.4134C30.721 25.1284 32.2005 26.2563 34.1341 26.2563ZM34.2 20.9243C32.9695 20.9243 32.1199 20.0601 32.1199 18.8149C32.1199 17.6211 33.0135 16.7056 34.2073 16.7056C35.4012 16.7056 36.2947 17.6357 36.2947 18.8516C36.2947 20.0527 35.4231 20.9243 34.2 20.9243ZM41.4366 19.1592C42.1324 19.1592 42.6085 18.6758 42.6085 18.0239C42.6085 17.3721 42.1324 16.8887 41.4366 16.8887C40.7481 16.8887 40.2647 17.3721 40.2647 18.0239C40.2647 18.6758 40.7481 19.1592 41.4366 19.1592ZM41.4366 24.5352C42.1324 24.5352 42.6085 24.0444 42.6085 23.3999C42.6085 22.748 42.1324 22.2646 41.4366 22.2646C40.7481 22.2646 40.2647 22.748 40.2647 23.3999C40.2647 24.0444 40.7481 24.5352 41.4366 24.5352ZM49.6107 26H51.4198V23.9712H52.848V22.4111H51.4198V15.4312H48.7538C47.3183 17.6138 45.8168 20.0454 44.4472 22.4258V23.9712H49.6107V26ZM46.1977 22.3452C47.2304 20.5508 48.4535 18.5952 49.5375 16.9399H49.64V22.4551H46.1977V22.3452ZM56.8767 26H58.7663V15.4312H56.884L54.1228 17.3721V19.1519L56.7521 17.2915H56.8767V26Z" fill="white"/>
</g>
<rect opacity="0.35" x="329.5" y="16.5" width="21" height="10.3333" rx="2.16667" stroke="white"/>
<path opacity="0.4" d="M352 19.6667V23.6667C352.805 23.3279 353.328 22.5398 353.328 21.6667C353.328 20.7935 352.805 20.0054 352 19.6667" fill="white"/>
<rect x="331" y="18" width="18" height="7.33333" rx="1.33333" fill="white"/>
</g>
<defs>
<clipPath id="clip0_44_746">
<rect width="375" height="42" fill="white"/>
</clipPath>
<clipPath id="clip1_44_746">
<rect width="54" height="17.1818" fill="white" transform="translate(18 12)"/>
</clipPath>
</defs>
</svg>
