<svg width="375" height="44" viewBox="0 0 375 44" fill="none" xmlns="http://www.w3.org/2000/svg">
<g clip-path="url(#clip0_44_809)">
<g filter="url(#filter0_d_44_809)">
<rect y="-44" width="375" height="88" fill="#F6F6F6"/>
</g>
<path d="M135.333 27.2988C134.198 27.2988 133.219 27.0443 132.394 26.5352C131.575 26.026 130.942 25.3039 130.493 24.3687C130.051 23.4279 129.829 22.3128 129.829 21.0234V21.0068C129.829 19.7119 130.051 18.5968 130.493 17.6616C130.942 16.7209 131.575 15.9959 132.394 15.4868C133.213 14.9777 134.19 14.7231 135.324 14.7231C136.232 14.7231 137.051 14.903 137.781 15.2627C138.512 15.6169 139.107 16.1094 139.566 16.7402C140.025 17.3656 140.302 18.085 140.396 18.8984L140.388 18.9648H138.296L138.288 18.9233C138.188 18.453 138 18.0435 137.723 17.6948C137.447 17.3407 137.103 17.0667 136.694 16.873C136.284 16.6738 135.828 16.5742 135.324 16.5742C134.649 16.5742 134.063 16.7541 133.565 17.1138C133.067 17.4735 132.682 17.9854 132.411 18.6494C132.145 19.3079 132.012 20.091 132.012 20.9985V21.0151C132.012 21.9227 132.145 22.7085 132.411 23.3726C132.682 24.0366 133.067 24.5485 133.565 24.9082C134.063 25.2679 134.652 25.4478 135.333 25.4478C135.842 25.4478 136.298 25.3592 136.702 25.1821C137.112 25.005 137.452 24.756 137.723 24.4351C138 24.1086 138.188 23.7267 138.288 23.2896L138.304 23.2397H140.396V23.3062C140.291 24.103 140.011 24.8003 139.558 25.3979C139.104 25.9956 138.517 26.4632 137.798 26.8008C137.079 27.1328 136.257 27.2988 135.333 27.2988ZM142.254 27V14.416H144.321V19.3218H144.462C144.678 18.8293 145.004 18.4447 145.441 18.168C145.879 17.8913 146.424 17.7529 147.077 17.7529C147.752 17.7529 148.322 17.8857 148.787 18.1514C149.251 18.4115 149.603 18.7933 149.841 19.2969C150.084 19.8005 150.206 20.4119 150.206 21.1313V27H148.139V21.6128C148.139 20.9045 147.99 20.3732 147.691 20.019C147.398 19.6649 146.938 19.4878 146.313 19.4878C145.903 19.4878 145.549 19.5791 145.25 19.7617C144.952 19.9443 144.722 20.2017 144.562 20.5337C144.401 20.8657 144.321 21.2586 144.321 21.7124V27H142.254ZM154.72 27.1494C154.15 27.1494 153.638 27.0387 153.184 26.8174C152.736 26.596 152.382 26.2834 152.122 25.8794C151.867 25.4699 151.74 24.9884 151.74 24.4351V24.4185C151.74 23.6105 152.036 22.9741 152.628 22.5093C153.226 22.0444 154.078 21.7816 155.185 21.7207L158.538 21.5132V22.8745L155.475 23.0737C154.894 23.1069 154.466 23.2287 154.189 23.439C153.912 23.6493 153.774 23.9425 153.774 24.3188V24.3354C153.774 24.7228 153.92 25.0244 154.214 25.2402C154.513 25.4561 154.892 25.564 155.351 25.564C155.766 25.564 156.137 25.481 156.463 25.3149C156.79 25.1489 157.047 24.9248 157.235 24.6426C157.423 24.3548 157.517 24.0311 157.517 23.6714V20.7993C157.517 20.3455 157.374 19.9997 157.086 19.7617C156.798 19.5182 156.372 19.3965 155.808 19.3965C155.337 19.3965 154.953 19.4795 154.654 19.6455C154.355 19.806 154.153 20.0356 154.048 20.3345L154.039 20.3677H152.089L152.097 20.293C152.163 19.7839 152.363 19.3384 152.695 18.9565C153.027 18.5747 153.467 18.2786 154.015 18.0684C154.562 17.8581 155.193 17.7529 155.907 17.7529C156.693 17.7529 157.357 17.8747 157.899 18.1182C158.442 18.3561 158.854 18.7048 159.136 19.1641C159.418 19.6178 159.559 20.1629 159.559 20.7993V27H157.517V25.7549H157.376C157.21 26.0426 156.995 26.2917 156.729 26.502C156.469 26.7122 156.17 26.8727 155.832 26.9834C155.495 27.0941 155.124 27.1494 154.72 27.1494ZM161.641 27V17.9272H163.708V19.3218H163.849C164.065 18.8293 164.392 18.4447 164.829 18.168C165.266 17.8913 165.811 17.7529 166.464 17.7529C167.477 17.7529 168.252 18.0462 168.788 18.6328C169.325 19.2194 169.594 20.0522 169.594 21.1313V27H167.527V21.6128C167.527 20.9045 167.377 20.3732 167.078 20.019C166.785 19.6649 166.326 19.4878 165.7 19.4878C165.291 19.4878 164.937 19.5791 164.638 19.7617C164.339 19.9443 164.11 20.2017 163.949 20.5337C163.789 20.8657 163.708 21.2586 163.708 21.7124V27H161.641ZM171.634 27V17.9272H173.701V19.3218H173.842C174.058 18.8293 174.384 18.4447 174.821 18.168C175.259 17.8913 175.804 17.7529 176.457 17.7529C177.469 17.7529 178.244 18.0462 178.781 18.6328C179.318 19.2194 179.586 20.0522 179.586 21.1313V27H177.519V21.6128C177.519 20.9045 177.37 20.3732 177.071 20.019C176.778 19.6649 176.318 19.4878 175.693 19.4878C175.284 19.4878 174.929 19.5791 174.631 19.7617C174.332 19.9443 174.102 20.2017 173.942 20.5337C173.781 20.8657 173.701 21.2586 173.701 21.7124V27H171.634ZM185.511 27.1826C184.609 27.1826 183.835 26.9917 183.187 26.6099C182.545 26.228 182.05 25.6857 181.701 24.9829C181.353 24.2801 181.178 23.4473 181.178 22.4844V22.4761C181.178 21.5243 181.35 20.6942 181.693 19.9858C182.042 19.2775 182.534 18.7297 183.171 18.3423C183.807 17.9494 184.554 17.7529 185.412 17.7529C186.275 17.7529 187.017 17.9438 187.636 18.3257C188.262 18.702 188.743 19.2305 189.081 19.9111C189.418 20.5918 189.587 21.3887 189.587 22.3018V22.9824H182.216V21.5962H188.574L187.595 22.8911V22.0693C187.595 21.4661 187.504 20.9653 187.321 20.5669C187.138 20.1685 186.884 19.8696 186.557 19.6704C186.236 19.4712 185.863 19.3716 185.437 19.3716C185.011 19.3716 184.631 19.4767 184.299 19.687C183.973 19.8918 183.713 20.1961 183.519 20.6001C183.331 20.9985 183.237 21.4883 183.237 22.0693V22.8994C183.237 23.4583 183.331 23.937 183.519 24.3354C183.707 24.7284 183.973 25.0327 184.316 25.2485C184.665 25.4588 185.077 25.564 185.553 25.564C185.924 25.564 186.242 25.5114 186.507 25.4062C186.779 25.2956 186.997 25.1655 187.163 25.0161C187.329 24.8612 187.445 24.7145 187.512 24.5762L187.537 24.5181H189.496L189.479 24.5928C189.407 24.8861 189.274 25.1849 189.081 25.4893C188.893 25.7881 188.635 26.0675 188.309 26.3276C187.988 26.5822 187.595 26.7897 187.13 26.9502C186.665 27.1051 186.126 27.1826 185.511 27.1826ZM191.337 27V14.416H193.404V27H191.337ZM199.03 27.1826C198.261 27.1826 197.597 27.0747 197.038 26.8589C196.485 26.6375 196.047 26.3332 195.726 25.9458C195.405 25.5529 195.215 25.0991 195.154 24.5845V24.5679H197.204L197.212 24.5845C197.323 24.8999 197.53 25.1572 197.835 25.3564C198.139 25.5557 198.549 25.6553 199.063 25.6553C199.406 25.6553 199.708 25.6082 199.968 25.5142C200.228 25.4146 200.433 25.279 200.582 25.1074C200.732 24.9359 200.807 24.7367 200.807 24.5098V24.4932C200.807 24.2275 200.699 24.0062 200.483 23.8291C200.267 23.6465 199.91 23.4998 199.412 23.3892L197.943 23.0571C197.079 22.8634 196.438 22.5618 196.017 22.1523C195.602 21.7373 195.394 21.195 195.394 20.5254V20.5171C195.394 19.9692 195.547 19.4878 195.851 19.0728C196.161 18.6577 196.59 18.334 197.138 18.1016C197.685 17.8691 198.316 17.7529 199.03 17.7529C199.766 17.7529 200.4 17.8636 200.931 18.085C201.462 18.3063 201.877 18.6107 202.176 18.998C202.475 19.3854 202.647 19.8254 202.691 20.3179V20.3345H200.748L200.74 20.3096C200.663 20.0218 200.477 19.7783 200.184 19.5791C199.896 19.3743 199.509 19.272 199.022 19.272C198.718 19.272 198.444 19.319 198.2 19.4131C197.962 19.5072 197.774 19.64 197.636 19.8115C197.503 19.9775 197.436 20.174 197.436 20.4009V20.4092C197.436 20.6748 197.542 20.8934 197.752 21.0649C197.962 21.2365 198.311 21.3776 198.798 21.4883L200.267 21.812C201.158 22.0112 201.816 22.3073 202.243 22.7002C202.669 23.0931 202.882 23.6216 202.882 24.2856V24.3022C202.882 24.8778 202.716 25.3813 202.384 25.813C202.052 26.2446 201.595 26.5822 201.014 26.8257C200.433 27.0636 199.772 27.1826 199.03 27.1826ZM208.913 27V15.022H216.55V16.8232H211.055V20.3677H216.077V22.1108H211.055V27H208.913ZM222.193 27.1826C221.291 27.1826 220.516 26.9917 219.869 26.6099C219.227 26.228 218.732 25.6857 218.383 24.9829C218.034 24.2801 217.86 23.4473 217.86 22.4844V22.4761C217.86 21.5243 218.032 20.6942 218.375 19.9858C218.723 19.2775 219.216 18.7297 219.852 18.3423C220.489 17.9494 221.236 17.7529 222.093 17.7529C222.957 17.7529 223.698 17.9438 224.318 18.3257C224.943 18.702 225.425 19.2305 225.762 19.9111C226.1 20.5918 226.269 21.3887 226.269 22.3018V22.9824H218.898V21.5962H225.256L224.276 22.8911V22.0693C224.276 21.4661 224.185 20.9653 224.003 20.5669C223.82 20.1685 223.565 19.8696 223.239 19.6704C222.918 19.4712 222.544 19.3716 222.118 19.3716C221.692 19.3716 221.313 19.4767 220.981 19.687C220.655 19.8918 220.394 20.1961 220.201 20.6001C220.013 20.9985 219.919 21.4883 219.919 22.0693V22.8994C219.919 23.4583 220.013 23.937 220.201 24.3354C220.389 24.7284 220.655 25.0327 220.998 25.2485C221.346 25.4588 221.759 25.564 222.234 25.564C222.605 25.564 222.923 25.5114 223.189 25.4062C223.46 25.2956 223.679 25.1655 223.845 25.0161C224.011 24.8612 224.127 24.7145 224.193 24.5762L224.218 24.5181H226.177L226.161 24.5928C226.089 24.8861 225.956 25.1849 225.762 25.4893C225.574 25.7881 225.317 26.0675 224.99 26.3276C224.669 26.5822 224.276 26.7897 223.812 26.9502C223.347 27.1051 222.807 27.1826 222.193 27.1826ZM231.82 27.1826C230.918 27.1826 230.144 26.9917 229.496 26.6099C228.854 26.228 228.359 25.6857 228.01 24.9829C227.662 24.2801 227.487 23.4473 227.487 22.4844V22.4761C227.487 21.5243 227.659 20.6942 228.002 19.9858C228.351 19.2775 228.843 18.7297 229.479 18.3423C230.116 17.9494 230.863 17.7529 231.721 17.7529C232.584 17.7529 233.326 17.9438 233.945 18.3257C234.571 18.702 235.052 19.2305 235.39 19.9111C235.727 20.5918 235.896 21.3887 235.896 22.3018V22.9824H228.525V21.5962H234.883L233.904 22.8911V22.0693C233.904 21.4661 233.812 20.9653 233.63 20.5669C233.447 20.1685 233.193 19.8696 232.866 19.6704C232.545 19.4712 232.172 19.3716 231.746 19.3716C231.319 19.3716 230.94 19.4767 230.608 19.687C230.282 19.8918 230.022 20.1961 229.828 20.6001C229.64 20.9985 229.546 21.4883 229.546 22.0693V22.8994C229.546 23.4583 229.64 23.937 229.828 24.3354C230.016 24.7284 230.282 25.0327 230.625 25.2485C230.974 25.4588 231.386 25.564 231.862 25.564C232.233 25.564 232.551 25.5114 232.816 25.4062C233.088 25.2956 233.306 25.1655 233.472 25.0161C233.638 24.8612 233.754 24.7145 233.821 24.5762L233.846 24.5181H235.805L235.788 24.5928C235.716 24.8861 235.583 25.1849 235.39 25.4893C235.201 25.7881 234.944 26.0675 234.618 26.3276C234.297 26.5822 233.904 26.7897 233.439 26.9502C232.974 27.1051 232.435 27.1826 231.82 27.1826ZM240.833 27.1494C240.081 27.1494 239.425 26.9613 238.866 26.585C238.307 26.2031 237.876 25.6608 237.571 24.958C237.267 24.2552 237.115 23.4279 237.115 22.4761V22.4595C237.115 21.4966 237.264 20.6665 237.563 19.9692C237.867 19.2664 238.296 18.7269 238.85 18.3506C239.408 17.9688 240.07 17.7778 240.833 17.7778C241.459 17.7778 242.015 17.9217 242.502 18.2095C242.994 18.4972 243.357 18.8846 243.589 19.3716H243.739V14.416H245.797V27H243.739V25.5806H243.589C243.34 26.0731 242.978 26.4577 242.502 26.7344C242.031 27.0111 241.475 27.1494 240.833 27.1494ZM241.481 25.4062C241.951 25.4062 242.355 25.29 242.693 25.0576C243.036 24.8197 243.299 24.4821 243.481 24.0449C243.669 23.6022 243.764 23.0793 243.764 22.4761V22.4595C243.764 21.8507 243.669 21.3278 243.481 20.8906C243.299 20.4535 243.036 20.1159 242.693 19.8779C242.355 19.64 241.951 19.521 241.481 19.521C241.016 19.521 240.612 19.64 240.269 19.8779C239.931 20.1104 239.671 20.4479 239.489 20.8906C239.306 21.3278 239.215 21.8507 239.215 22.4595V22.4761C239.215 23.0848 239.306 23.6077 239.489 24.0449C239.671 24.4821 239.931 24.8197 240.269 25.0576C240.607 25.29 241.01 25.4062 241.481 25.4062Z" fill="black"/>
<g clip-path="url(#clip1_44_809)">
<path d="M33.3501 27.2822C32.2655 27.2822 31.3275 27.0277 30.5361 26.5186C29.7448 26.0094 29.1333 25.2873 28.7017 24.3521C28.2756 23.4168 28.0625 22.3073 28.0625 21.0234V21.0068C28.0625 19.7174 28.2756 18.6051 28.7017 17.6699C29.1333 16.7347 29.742 16.0125 30.5278 15.5034C31.3192 14.9943 32.2572 14.7397 33.3418 14.7397C34.1829 14.7397 34.9466 14.9058 35.6328 15.2378C36.3245 15.5643 36.8945 16.0208 37.3428 16.6074C37.791 17.1885 38.0732 17.8608 38.1895 18.6245L38.1812 18.6411H36.6787L36.6704 18.6245C36.5376 18.1099 36.3135 17.6672 35.998 17.2964C35.6826 16.9201 35.298 16.6296 34.8442 16.4248C34.396 16.2201 33.8952 16.1177 33.3418 16.1177C32.5781 16.1177 31.9141 16.3169 31.3496 16.7153C30.7907 17.1138 30.359 17.6782 30.0547 18.4087C29.7503 19.1392 29.5981 20.0052 29.5981 21.0068V21.0234C29.5981 22.0195 29.7503 22.8828 30.0547 23.6133C30.359 24.3438 30.7907 24.9082 31.3496 25.3066C31.9141 25.7051 32.5809 25.9043 33.3501 25.9043C33.909 25.9043 34.4154 25.8158 34.8691 25.6387C35.3229 25.4561 35.7048 25.1987 36.0146 24.8667C36.3245 24.5291 36.5404 24.1307 36.6621 23.6714L36.6787 23.6548H38.1895V23.6714C38.0566 24.4019 37.7689 25.0382 37.3262 25.5806C36.8835 26.1174 36.3218 26.5352 35.6411 26.834C34.966 27.1328 34.2023 27.2822 33.3501 27.2822ZM40.1967 27V14.499H41.641V19.3965H41.7738C42.0007 18.9206 42.3272 18.5526 42.7533 18.2925C43.1794 18.0269 43.7217 17.894 44.3803 17.894C45.0499 17.894 45.6171 18.0241 46.0819 18.2842C46.5468 18.5387 46.9009 18.9123 47.1444 19.4048C47.3879 19.8973 47.5097 20.4977 47.5097 21.2061V27H46.0653V21.5547C46.0653 20.7467 45.8938 20.1491 45.5507 19.7617C45.2131 19.3688 44.6874 19.1724 43.9735 19.1724C43.4976 19.1724 43.0854 19.2747 42.7367 19.4795C42.3881 19.6842 42.1169 19.9748 41.9232 20.3511C41.7351 20.7274 41.641 21.1784 41.641 21.7041V27H40.1967ZM52.1814 27.1577C51.617 27.1577 51.1079 27.0498 50.6541 26.834C50.2059 26.6182 49.8489 26.311 49.5833 25.9126C49.3232 25.5142 49.1932 25.0438 49.1932 24.5015V24.4849C49.1932 23.688 49.4754 23.0654 50.0398 22.6172C50.6098 22.1634 51.415 21.9061 52.4554 21.8452L55.7425 21.646V22.7998L52.6297 22.999C51.949 23.0378 51.451 23.1789 51.1355 23.4224C50.8257 23.6659 50.6707 24.009 50.6707 24.4517V24.4683C50.6707 24.922 50.8423 25.2762 51.1854 25.5308C51.5285 25.7798 51.9601 25.9043 52.4803 25.9043C52.9728 25.9043 53.41 25.8075 53.7918 25.6138C54.1736 25.4146 54.4725 25.1462 54.6883 24.8086C54.9096 24.471 55.0203 24.0892 55.0203 23.6631V20.874C55.0203 20.3206 54.8515 19.9001 54.514 19.6123C54.1819 19.319 53.6811 19.1724 53.0115 19.1724C52.4747 19.1724 52.0348 19.2692 51.6917 19.4629C51.3486 19.651 51.1189 19.9194 51.0027 20.2681L50.9944 20.293H49.5501L49.5584 20.2432C49.6359 19.7728 49.8296 19.3633 50.1395 19.0146C50.4549 18.6605 50.8616 18.3866 51.3597 18.1929C51.8577 17.9937 52.4249 17.894 53.0613 17.894C53.7918 17.894 54.4088 18.013 54.9124 18.251C55.4215 18.4889 55.8061 18.832 56.0662 19.2803C56.3318 19.723 56.4646 20.2542 56.4646 20.874V27H55.0203V25.6802H54.8875C54.6993 25.9956 54.4697 26.264 54.1985 26.4854C53.9329 26.7067 53.6313 26.8755 53.2938 26.9917C52.9562 27.1024 52.5854 27.1577 52.1814 27.1577ZM61.8835 27.0664C60.9649 27.0664 60.298 26.881 59.883 26.5103C59.4735 26.1395 59.2687 25.528 59.2687 24.6758V19.2471H57.8576V18.0518H59.2687V15.7358H60.7629V18.0518H62.7219V19.2471H60.7629V24.3105C60.7629 24.8363 60.8625 25.2153 61.0617 25.4478C61.2609 25.6746 61.593 25.7881 62.0578 25.7881C62.1851 25.7881 62.293 25.7853 62.3815 25.7798C62.4756 25.7743 62.5891 25.766 62.7219 25.7549V26.9834C62.5835 27.0055 62.4452 27.0249 62.3068 27.0415C62.1685 27.0581 62.0274 27.0664 61.8835 27.0664ZM67.3854 27.1577C66.7213 27.1577 66.1347 27.0581 65.6256 26.8589C65.1165 26.6541 64.707 26.3691 64.3971 26.0039C64.0927 25.6387 63.9129 25.2098 63.8575 24.7173H65.3351C65.4568 25.0881 65.6948 25.3869 66.0489 25.6138C66.4031 25.8407 66.8652 25.9541 67.4352 25.9541C67.8391 25.9541 68.1933 25.896 68.4977 25.7798C68.8076 25.658 69.051 25.4948 69.2281 25.29C69.4052 25.0798 69.4938 24.839 69.4938 24.5679V24.5513C69.4938 24.2469 69.372 23.9896 69.1285 23.7793C68.885 23.5635 68.4866 23.3892 67.9332 23.2563L66.547 22.9243C65.7114 22.7251 65.0971 22.4346 64.7042 22.0527C64.3113 21.6654 64.1148 21.1507 64.1148 20.5088V20.5005C64.1148 20.0024 64.2587 19.557 64.5465 19.1641C64.8398 18.7712 65.2382 18.4613 65.7418 18.2344C66.2454 18.0075 66.8126 17.894 67.4435 17.894C68.0688 17.894 68.6222 17.9937 69.1036 18.1929C69.5906 18.3866 69.9807 18.6632 70.274 19.0229C70.5729 19.3826 70.7555 19.806 70.8219 20.293H69.4024C69.3084 19.9388 69.0925 19.651 68.755 19.4297C68.4174 19.2083 67.9775 19.0977 67.4352 19.0977C67.081 19.0977 66.7656 19.1558 66.4889 19.272C66.2122 19.3826 65.9936 19.5376 65.8331 19.7368C65.6726 19.936 65.5924 20.1685 65.5924 20.4341V20.4507C65.5924 20.755 65.7114 21.0068 65.9493 21.2061C66.1873 21.4053 66.5691 21.5685 67.0948 21.6958L68.4728 22.0278C69.3139 22.2326 69.9392 22.5259 70.3487 22.9077C70.7638 23.2896 70.9713 23.8014 70.9713 24.4434V24.46C70.9713 24.9912 70.8136 25.4616 70.4981 25.8711C70.1827 26.2751 69.7538 26.5905 69.2115 26.8174C68.6747 27.0443 68.066 27.1577 67.3854 27.1577Z" fill="#037EE5"/>
<path d="M11.6021 22.1885L19.4062 14.2394C19.9866 13.6482 19.9778 12.6985 19.3867 12.1181C18.7955 11.5378 17.8458 11.5465 17.2655 12.1377L8.42962 21.1377C7.85679 21.7211 7.85679 22.6559 8.42962 23.2394L17.2655 32.2394C17.8458 32.8305 18.7955 32.8393 19.3867 32.2589C19.9778 31.6785 19.9866 30.7288 19.4062 30.1377L11.6021 22.1885Z" fill="#007AFF"/>
</g>
</g>
<defs>
<filter id="filter0_d_44_809" x="0" y="-44" width="375" height="88.33" filterUnits="userSpaceOnUse" color-interpolation-filters="sRGB">
<feFlood flood-opacity="0" result="BackgroundImageFix"/>
<feColorMatrix in="SourceAlpha" type="matrix" values="0 0 0 0 0 0 0 0 0 0 0 0 0 0 0 0 0 0 127 0" result="hardAlpha"/>
<feOffset dy="0.33"/>
<feColorMatrix type="matrix" values="0 0 0 0 0.65098 0 0 0 0 0.65098 0 0 0 0 0.666667 0 0 0 1 0"/>
<feBlend mode="normal" in2="BackgroundImageFix" result="effect1_dropShadow_44_809"/>
<feBlend mode="normal" in="SourceGraphic" in2="effect1_dropShadow_44_809" result="shape"/>
</filter>
<clipPath id="clip0_44_809">
<rect width="375" height="44" fill="white"/>
</clipPath>
<clipPath id="clip1_44_809">
<rect width="64" height="23" fill="white" transform="translate(8 10)"/>
</clipPath>
</defs>
</svg>
