<svg width="1080" height="216" viewBox="0 0 1080 216" fill="none" xmlns="http://www.w3.org/2000/svg">
<g clip-path="url(#clip0_83_788)">
<g filter="url(#filter0_d_83_788)">
<rect y="-97" width="1080" height="313" fill="#F6F6F6"/>
</g>
<path d="M402.364 78V42.7705H407.442L419.649 72.458H419.796L432.003 42.7705H437.081V78H432.979V50.7783H430.978L435.738 43.7471L421.578 78H417.867L403.707 43.7471L408.468 50.7783H406.466V78H402.364ZM449.547 78.4883C447.871 78.4883 446.398 78.1709 445.128 77.5361C443.859 76.9014 442.866 76.0062 442.15 74.8506C441.45 73.695 441.1 72.3522 441.1 70.8223V70.7734C441.1 68.6087 441.906 66.8835 443.517 65.5977C445.128 64.2956 447.391 63.5632 450.304 63.4004L459.704 62.8633V66.1592L450.792 66.6963C449.1 66.7939 447.781 67.2008 446.837 67.917C445.91 68.6331 445.446 69.5853 445.446 70.7734V70.8223C445.446 72.043 445.901 73.0114 446.813 73.7275C447.741 74.4437 448.969 74.8018 450.499 74.8018C451.834 74.8018 453.03 74.5251 454.088 73.9717C455.163 73.402 456.009 72.6289 456.627 71.6523C457.262 70.6758 457.579 69.5771 457.579 68.3564V60.8613C457.579 59.3151 457.091 58.1025 456.115 57.2236C455.154 56.3285 453.787 55.8809 452.013 55.8809C450.385 55.8809 449.067 56.2389 448.058 56.9551C447.065 57.6549 446.447 58.5745 446.203 59.7139L446.154 59.9336H442.052L442.077 59.665C442.207 58.2653 442.679 56.9958 443.493 55.8564C444.323 54.7171 445.462 53.8138 446.911 53.1465C448.359 52.4629 450.076 52.1211 452.062 52.1211C454.064 52.1211 455.789 52.4629 457.238 53.1465C458.703 53.8301 459.834 54.7985 460.631 56.0518C461.429 57.2887 461.828 58.7536 461.828 60.4463V78H457.579V73.874H457.482C456.994 74.8018 456.343 75.6156 455.529 76.3154C454.715 76.999 453.795 77.5361 452.77 77.9268C451.761 78.3011 450.687 78.4883 449.547 78.4883ZM466.823 78V52.6094H471.071V56.2227H471.169C471.852 55.0345 472.845 54.0579 474.147 53.293C475.449 52.5117 477.061 52.1211 478.981 52.1211C481.764 52.1211 483.921 52.9674 485.451 54.6602C486.997 56.3366 487.77 58.6234 487.77 61.5205V78H483.522V62.2773C483.522 60.2103 483.034 58.6315 482.057 57.541C481.097 56.4342 479.64 55.8809 477.687 55.8809C476.353 55.8809 475.189 56.182 474.196 56.7842C473.203 57.3701 472.43 58.2002 471.877 59.2744C471.34 60.3486 471.071 61.61 471.071 63.0586V78H466.823ZM500.212 78.4883C498.536 78.4883 497.063 78.1709 495.793 77.5361C494.524 76.9014 493.531 76.0062 492.815 74.8506C492.115 73.695 491.765 72.3522 491.765 70.8223V70.7734C491.765 68.6087 492.571 66.8835 494.182 65.5977C495.793 64.2956 498.056 63.5632 500.969 63.4004L510.368 62.8633V66.1592L501.457 66.6963C499.765 66.7939 498.446 67.2008 497.502 67.917C496.574 68.6331 496.111 69.5853 496.111 70.7734V70.8223C496.111 72.043 496.566 73.0114 497.478 73.7275C498.405 74.4437 499.634 74.8018 501.164 74.8018C502.499 74.8018 503.695 74.5251 504.753 73.9717C505.827 73.402 506.674 72.6289 507.292 71.6523C507.927 70.6758 508.244 69.5771 508.244 68.3564V60.8613C508.244 59.3151 507.756 58.1025 506.779 57.2236C505.819 56.3285 504.452 55.8809 502.678 55.8809C501.05 55.8809 499.732 56.2389 498.723 56.9551C497.73 57.6549 497.112 58.5745 496.867 59.7139L496.819 59.9336H492.717L492.741 59.665C492.872 58.2653 493.344 56.9958 494.157 55.8564C494.988 54.7171 496.127 53.8138 497.575 53.1465C499.024 52.4629 500.741 52.1211 502.727 52.1211C504.729 52.1211 506.454 52.4629 507.903 53.1465C509.367 53.8301 510.499 54.7985 511.296 56.0518C512.094 57.2887 512.492 58.7536 512.492 60.4463V78H508.244V73.874H508.147C507.658 74.8018 507.007 75.6156 506.194 76.3154C505.38 76.999 504.46 77.5361 503.435 77.9268C502.426 78.3011 501.351 78.4883 500.212 78.4883ZM528.23 87.0332C526.147 87.0332 524.324 86.7321 522.761 86.1299C521.215 85.5439 519.962 84.7383 519.002 83.7129C518.058 82.7038 517.447 81.5726 517.171 80.3193L517.122 80.0996H521.394L521.492 80.3193C521.899 81.2308 522.68 81.9469 523.836 82.4678C525.007 83.0049 526.456 83.2734 528.181 83.2734C530.411 83.2734 532.136 82.6956 533.357 81.54C534.578 80.4007 535.188 78.8464 535.188 76.877V73.6299H535.09C534.586 74.5739 533.935 75.3877 533.137 76.0713C532.34 76.7549 531.42 77.292 530.379 77.6826C529.353 78.057 528.23 78.2441 527.009 78.2441C524.877 78.2441 522.997 77.707 521.37 76.6328C519.758 75.5423 518.497 74.0205 517.586 72.0674C516.69 70.098 516.243 67.7949 516.243 65.1582V65.1338C516.243 62.4971 516.698 60.2103 517.61 58.2734C518.538 56.3203 519.815 54.8066 521.443 53.7324C523.071 52.6582 524.959 52.1211 527.107 52.1211C528.311 52.1211 529.418 52.3245 530.427 52.7314C531.436 53.1383 532.332 53.6999 533.113 54.416C533.91 55.1322 534.57 55.9622 535.09 56.9062H535.188V52.6094H539.436V77.292C539.436 79.2614 538.98 80.9704 538.069 82.4189C537.157 83.8838 535.864 85.015 534.187 85.8125C532.511 86.6263 530.525 87.0332 528.23 87.0332ZM527.937 74.4844C529.386 74.4844 530.647 74.1019 531.721 73.3369C532.812 72.5557 533.658 71.4652 534.26 70.0654C534.879 68.6657 535.188 67.0299 535.188 65.1582V65.1338C535.188 63.262 534.879 61.6344 534.26 60.251C533.658 58.8675 532.812 57.7933 531.721 57.0283C530.631 56.2633 529.369 55.8809 527.937 55.8809C526.44 55.8809 525.138 56.2633 524.031 57.0283C522.924 57.777 522.07 58.8431 521.467 60.2266C520.881 61.61 520.588 63.2458 520.588 65.1338V65.1582C520.588 67.0788 520.881 68.7389 521.467 70.1387C522.07 71.5221 522.924 72.5964 524.031 73.3613C525.138 74.11 526.44 74.4844 527.937 74.4844ZM554.979 78.4883C552.553 78.4883 550.462 77.9512 548.704 76.877C546.963 75.8027 545.62 74.2891 544.676 72.3359C543.748 70.3665 543.284 68.0553 543.284 65.4023V65.3779C543.284 62.7575 543.756 60.4544 544.7 58.4688C545.644 56.4668 546.971 54.9124 548.68 53.8057C550.389 52.6826 552.399 52.1211 554.71 52.1211C557.021 52.1211 559.007 52.6582 560.667 53.7324C562.343 54.7904 563.629 56.2796 564.524 58.2002C565.42 60.1208 565.867 62.3506 565.867 64.8896V66.4521H545.408V63.1318H563.768L561.619 66.208V64.5723C561.619 62.6029 561.318 60.9753 560.716 59.6895C560.13 58.4036 559.316 57.4515 558.274 56.833C557.233 56.1982 556.036 55.8809 554.686 55.8809C553.335 55.8809 552.122 56.2145 551.048 56.8818C549.974 57.5329 549.127 58.5094 548.509 59.8115C547.89 61.0973 547.581 62.6842 547.581 64.5723V66.208C547.581 67.9984 547.882 69.5283 548.484 70.7979C549.103 72.0674 549.974 73.0439 551.097 73.7275C552.22 74.3949 553.546 74.7285 555.076 74.7285C556.15 74.7285 557.111 74.5658 557.957 74.2402C558.803 73.9147 559.511 73.4671 560.081 72.8975C560.651 72.3278 561.058 71.6768 561.302 70.9443L561.375 70.7246H565.55L565.501 70.9688C565.289 72.0104 564.882 72.987 564.28 73.8984C563.694 74.8099 562.938 75.6156 562.01 76.3154C561.082 76.999 560.024 77.5361 558.836 77.9268C557.648 78.3011 556.362 78.4883 554.979 78.4883ZM580.277 78V42.7705H601.664V46.7256H584.672V58.835H600.272V62.7412H584.672V78H580.277ZM615.107 78.4883C612.681 78.4883 610.59 77.9512 608.832 76.877C607.091 75.8027 605.748 74.2891 604.804 72.3359C603.876 70.3665 603.412 68.0553 603.412 65.4023V65.3779C603.412 62.7575 603.884 60.4544 604.828 58.4688C605.772 56.4668 607.099 54.9124 608.808 53.8057C610.517 52.6826 612.527 52.1211 614.838 52.1211C617.149 52.1211 619.135 52.6582 620.795 53.7324C622.472 54.7904 623.757 56.2796 624.653 58.2002C625.548 60.1208 625.995 62.3506 625.995 64.8896V66.4521H605.536V63.1318H623.896L621.747 66.208V64.5723C621.747 62.6029 621.446 60.9753 620.844 59.6895C620.258 58.4036 619.444 57.4515 618.403 56.833C617.361 56.1982 616.165 55.8809 614.814 55.8809C613.463 55.8809 612.25 56.2145 611.176 56.8818C610.102 57.5329 609.255 58.5094 608.637 59.8115C608.018 61.0973 607.709 62.6842 607.709 64.5723V66.208C607.709 67.9984 608.01 69.5283 608.612 70.7979C609.231 72.0674 610.102 73.0439 611.225 73.7275C612.348 74.3949 613.674 74.7285 615.204 74.7285C616.279 74.7285 617.239 74.5658 618.085 74.2402C618.931 73.9147 619.64 73.4671 620.209 72.8975C620.779 72.3278 621.186 71.6768 621.43 70.9443L621.503 70.7246H625.678L625.629 70.9688C625.418 72.0104 625.011 72.987 624.408 73.8984C623.822 74.8099 623.066 75.6156 622.138 76.3154C621.21 76.999 620.152 77.5361 618.964 77.9268C617.776 78.3011 616.49 78.4883 615.107 78.4883ZM640.341 78.4883C637.916 78.4883 635.825 77.9512 634.067 76.877C632.325 75.8027 630.983 74.2891 630.039 72.3359C629.111 70.3665 628.647 68.0553 628.647 65.4023V65.3779C628.647 62.7575 629.119 60.4544 630.063 58.4688C631.007 56.4668 632.334 54.9124 634.043 53.8057C635.752 52.6826 637.762 52.1211 640.073 52.1211C642.384 52.1211 644.37 52.6582 646.03 53.7324C647.706 54.7904 648.992 56.2796 649.887 58.2002C650.782 60.1208 651.23 62.3506 651.23 64.8896V66.4521H630.771V63.1318H649.13L646.982 66.208V64.5723C646.982 62.6029 646.681 60.9753 646.079 59.6895C645.493 58.4036 644.679 57.4515 643.637 56.833C642.596 56.1982 641.399 55.8809 640.048 55.8809C638.698 55.8809 637.485 56.2145 636.411 56.8818C635.337 57.5329 634.49 58.5094 633.872 59.8115C633.253 61.0973 632.944 62.6842 632.944 64.5723V66.208C632.944 67.9984 633.245 69.5283 633.847 70.7979C634.466 72.0674 635.337 73.0439 636.46 73.7275C637.583 74.3949 638.909 74.7285 640.439 74.7285C641.513 74.7285 642.474 74.5658 643.32 74.2402C644.166 73.9147 644.874 73.4671 645.444 72.8975C646.014 72.3278 646.421 71.6768 646.665 70.9443L646.738 70.7246H650.913L650.864 70.9688C650.652 72.0104 650.245 72.987 649.643 73.8984C649.057 74.8099 648.3 75.6156 647.373 76.3154C646.445 76.999 645.387 77.5361 644.199 77.9268C643.011 78.3011 641.725 78.4883 640.341 78.4883ZM664.673 78.4883C662.508 78.4883 660.612 77.9512 658.984 76.877C657.373 75.7865 656.12 74.2565 655.225 72.2871C654.329 70.3014 653.882 67.974 653.882 65.3047V65.2803C653.882 62.611 654.329 60.2917 655.225 58.3223C656.136 56.3529 657.397 54.8311 659.009 53.7568C660.62 52.6663 662.484 52.1211 664.6 52.1211C666.39 52.1211 667.993 52.5443 669.409 53.3906C670.825 54.237 671.932 55.3926 672.729 56.8574H672.827V42.7705H677.075V78H672.827V73.7031H672.729C671.932 75.1842 670.841 76.3561 669.458 77.2188C668.091 78.0651 666.496 78.4883 664.673 78.4883ZM665.503 74.7285C666.935 74.7285 668.205 74.3379 669.312 73.5566C670.418 72.7754 671.281 71.6768 671.899 70.2607C672.534 68.8447 672.852 67.1927 672.852 65.3047V65.2803C672.852 63.3923 672.534 61.7484 671.899 60.3486C671.265 58.9326 670.394 57.834 669.287 57.0527C668.197 56.2715 666.935 55.8809 665.503 55.8809C664.006 55.8809 662.712 56.2633 661.621 57.0283C660.531 57.7933 659.692 58.8757 659.106 60.2754C658.521 61.6751 658.228 63.3434 658.228 65.2803V65.3047C658.228 67.2415 658.521 68.918 659.106 70.334C659.692 71.75 660.531 72.8405 661.621 73.6055C662.712 74.3542 664.006 74.7285 665.503 74.7285Z" fill="#037EE5"/>
</g>
<defs>
<filter id="filter0_d_83_788" x="0" y="-97" width="1080" height="313.33" filterUnits="userSpaceOnUse" color-interpolation-filters="sRGB">
<feFlood flood-opacity="0" result="BackgroundImageFix"/>
<feColorMatrix in="SourceAlpha" type="matrix" values="0 0 0 0 0 0 0 0 0 0 0 0 0 0 0 0 0 0 127 0" result="hardAlpha"/>
<feOffset dy="0.33"/>
<feColorMatrix type="matrix" values="0 0 0 0 0.65098 0 0 0 0 0.65098 0 0 0 0 0.666667 0 0 0 1 0"/>
<feBlend mode="normal" in2="BackgroundImageFix" result="effect1_dropShadow_83_788"/>
<feBlend mode="normal" in="SourceGraphic" in2="effect1_dropShadow_83_788" result="shape"/>
</filter>
<clipPath id="clip0_83_788">
<rect width="1080" height="216" fill="white"/>
</clipPath>
</defs>
</svg>
